<svg height="512" viewBox="0 0 64 64" width="512" xmlns="http://www.w3.org/2000/svg"><g id="Filled_outline" data-name="Filled outline"><path d="m56 55h-16l-2-22h20z" fill="#f4f4e6"/><path d="m38.364 37 1.636 18h16l1.636-18z" fill="#87cee9"/><path d="m33 55h-22l-2-36h26z" fill="#cdeef6"/><path d="m7 13h30v6h-30z" fill="#f4f4e6"/><path d="m35 13h-26l2-6h22z" fill="#e0e0d3"/><path d="m22 7 8-4v4z" fill="#f4f4e6"/><path d="m33.389 48 1-18h-24.778l1 18z" fill="#195c85"/><path d="m24 34v-4h-14.389l1 18h13.389v-4a5 5 0 0 0 0-10z" fill="#32b1cc"/><path d="m15 30h-2v-7a1 1 0 0 1 1-1h3v2h-2z" fill="#fff"/><path d="m19 22h2v2h-2z" fill="#fff"/><path d="m3 55h58a0 0 0 0 1 0 0v2a4 4 0 0 1 -4 4h-50a4 4 0 0 1 -4-4v-2a0 0 0 0 1 0 0z" fill="#87cee9"/><path d="m39.636 51 .364 4h16l.364-4z" fill="#f4f4e6"/><path d="m43 45h4v4h-4z" fill="#fff"/><path d="m48.879 40.879h4.243v4.243h-4.243z" fill="#fff" transform="matrix(.707 -.707 .707 .707 -15.468 48.657)"/><g fill="#87cee9"><path d="m13 34h8v2h-8z"/><path d="m13 38h4v2h-4z"/><path d="m19 38h5v2h-5z"/><path d="m13 42h7v2h-7z"/></g><path d="m19 22h2v2h-2z"/><path d="m61 54h-3.9l1.9-20.91a1 1 0 0 0 -1-1.09h-20a1 1 0 0 0 -1 1.09l1.905 20.91h-4.848l1.889-34h1.054a1 1 0 0 0 1-1v-6a1 1 0 0 0 -1-1h-1.28l-1.772-5.316a1 1 0 0 0 -.948-.684h-2v-3a1 1 0 0 0 -1.447-.895l-7.789 3.895h-10.764a1 1 0 0 0 -.948.684l-1.772 5.316h-1.28a1 1 0 0 0 -1 1v6a1 1 0 0 0 1 1h1.054l1.889 34h-6.943a1 1 0 0 0 -1 1v2a5.006 5.006 0 0 0 5 5h50a5.006 5.006 0 0 0 5-5v-2a1 1 0 0 0 -1-1zm-4.095-20-.182 2h-17.446l-.177-2zm-1.636 18-.182 2h-14.174l-.182-2zm-11.269-4v-2h2v2zm3 2a1 1 0 0 0 1-1v-4a1 1 0 0 0 -1-1h-4a1 1 0 0 0 -1 1v4a1 1 0 0 0 1 1h-2.451l-1.091-12h17.084l-1.091 12zm-18-45.382v1.382h-2.764zm-17.279 3.382h20.558l1.333 4h-23.224zm-3.721 10v-4h28v4zm16 17a4 4 0 0 1 0 8 1 1 0 0 0 -1 1v3h-11.443l-.889-16h12.332v3a1 1 0 0 0 1 1zm8.332 14-.278 5h-20.108l-.278-5zm-7.332-2v-2.083a6 6 0 0 0 0-11.834v-2.083h8.332l-.889 16zm-10-18v-5h2v-2h-3a1 1 0 0 0 -1 1v6h-2.443l-.5-9h23.886l-.5 9zm45 28a3 3 0 0 1 -3 3h-50a3 3 0 0 1 -3-3v-1h56z"/><path d="m51.707 39.293a1 1 0 0 0 -1.414 0l-3 3a1 1 0 0 0 0 1.414l3 3a1 1 0 0 0 1.414 0l3-3a1 1 0 0 0 0-1.414zm-.707 5.293-1.586-1.586 1.586-1.586 1.586 1.586z"/><path d="m13 34h8v2h-8z"/><path d="m13 38h4v2h-4z"/><path d="m19 38h5v2h-5z"/><path d="m13 42h7v2h-7z"/></g></svg>